<?xml version="1.0" encoding="UTF-8"?>
<svg id="Camada_1" data-name="Camada 1" xmlns="http://www.w3.org/2000/svg" viewBox="0 0 251.37 75.68">
  <defs>
    <style>
      .cls-1 {
        fill: #1d1d1b;
      }
    </style>
  </defs>
  <polygon class="cls-1" points="14.67 27.25 23.59 32.4 47.19 18.78 56.12 23.93 56.12 51.18 23.59 69.96 32.52 75.11 65.05 56.33 65.05 18.78 47.19 8.47 14.67 27.25"/>
  <polygon class="cls-1" points="32.52 0 0 18.78 0 56.33 17.85 66.64 50.38 47.86 41.45 42.71 17.85 56.33 8.93 51.18 8.93 23.93 41.45 5.15 32.52 0"/>
  <g>
    <path class="cls-1" d="M80.48,54.99v-5.3h16.11c1.08,0,1.99-.28,2.74-.86.75-.57,1.12-1.28,1.12-2.12v-4.59c0-.94-.38-1.69-1.15-2.25-.76-.55-1.8-.83-3.1-.83h-6.04c-2.76,0-5.06-.7-6.91-2.09-1.84-1.4-2.77-3.16-2.77-5.28v-4.54c0-1.82.28-3.26.84-4.34s1.51-2.02,2.84-2.83c.82-.5,1.66-.86,2.54-1.06.87-.2,2.04-.31,3.48-.31h16.29v5.3h-16.61c-2.39,0-3.58.99-3.58,2.98v3.64c0,2.49,1.27,3.74,3.8,3.74h7.05c2.5,0,4.64.69,6.43,2.07s2.69,3.03,2.69,4.95v5.71c0,2.32-.86,4.24-2.57,5.76-1.71,1.52-3.87,2.27-6.47,2.27h-16.73v-.02Z"/>
    <path class="cls-1" d="M119.81,45.04c0,1.82.37,3.05,1.11,3.69s2.21.96,4.41.96h6.19c2.15,0,3.61-.31,4.38-.93.76-.62,1.14-1.84,1.14-3.66v-16.56c0-1.75-.39-2.96-1.17-3.63-.78-.67-2.23-1.01-4.35-1.01h-6.19c-2.12,0-3.57.32-4.35.96s-1.17,1.87-1.17,3.68v16.51h0ZM126.22,54.99c-2.83,0-4.85-.17-6.08-.5-1.23-.34-2.4-1.06-3.51-2.17-1.75-1.68-2.62-4.19-2.62-7.52v-16c0-1.82.19-3.27.59-4.37.39-1.09,1.1-2.16,2.12-3.21,1.02-1.04,2.18-1.74,3.46-2.1,1.28-.35,3.3-.53,6.05-.53h4.35c2.86,0,4.88.17,6.05.51s2.35,1.06,3.54,2.17c1.78,1.72,2.68,4.22,2.68,7.52v16c0,1.82-.19,3.27-.56,4.37-.37,1.09-1.09,2.16-2.15,3.21-1.06,1.04-2.23,1.74-3.51,2.09s-3.3.53-6.05.53h-4.36Z"/>
  </g>
  <rect class="cls-1" x="151.6" y="18.59" width="5.8" height="36.4"/>
  <polygon class="cls-1" points="162.87 23.89 162.87 18.59 186.12 18.59 186.12 23.89 177.37 23.89 177.37 54.99 171.57 54.99 171.57 23.89 162.87 23.89"/>
  <path class="cls-1" d="M196.22,45.04c0,1.82.37,3.05,1.11,3.69s2.21.96,4.41.96h6.19c2.15,0,3.61-.31,4.38-.93.76-.62,1.14-1.84,1.14-3.66v-16.56c0-1.75-.39-2.96-1.17-3.63-.78-.67-2.23-1.01-4.35-1.01h-6.19c-2.12,0-3.57.32-4.35.96s-1.17,1.87-1.17,3.68v16.51h0ZM202.63,54.99c-2.83,0-4.85-.17-6.08-.5s-2.4-1.06-3.51-2.17c-1.75-1.68-2.62-4.19-2.62-7.52v-16c0-1.82.19-3.27.58-4.37.39-1.09,1.1-2.16,2.12-3.21,1.02-1.04,2.18-1.74,3.46-2.1,1.28-.35,3.3-.53,6.05-.53h4.35c2.86,0,4.88.17,6.05.51s2.35,1.06,3.54,2.17c1.78,1.72,2.68,4.22,2.68,7.52v16c0,1.82-.19,3.27-.56,4.37-.37,1.09-1.09,2.16-2.15,3.21-1.06,1.04-2.23,1.74-3.51,2.09s-3.3.53-6.05.53h-4.35Z"/>
  <g>
    <rect class="cls-1" x="80.65" y="67.55" width=".7" height="8.06"/>
    <g>
      <path class="cls-1" d="M89.52,74.43l-4.82-6.56c-.1-.14-.18-.24-.25-.3-.08-.07-.18-.11-.28-.11-.2,0-.35.13-.39.37v7.77h.69v-6.91l4.85,6.61c.18.25.35.37.53.37.2,0,.28-.11.31-.18.03-.06.06-.17.06-.49v-7.45h-.69v6.89h0Z"/>
      <path class="cls-1" d="M95.47,74.67l-3.11-7.12h-.75l3.38,7.67c.11.25.16.32.2.35.06.07.16.1.28.1.11,0,.21-.04.29-.11.06-.06.13-.17.21-.34l3.36-7.67h-.75l-3.1,7.12h0Z"/>
      <path class="cls-1" d="M106.54,71.95l.04-.65h-5.15v-1.85c0-.42.13-.73.4-.93.28-.21.63-.32,1.04-.32h3.7v-.65h-3.68c-.64,0-1.17.18-1.56.52-.39.35-.59.81-.59,1.39v4.31c0,.55.19,1,.58,1.34.38.33.88.5,1.49.5h3.74v-.65h-3.68c-.45,0-.81-.11-1.06-.33s-.37-.52-.37-.91v-1.76h5.11-.01Z"/>
      <path class="cls-1" d="M109.79,67.65c-.23.07-.46.2-.68.38-.42.33-.64.81-.64,1.43v.65c0,.57.21,1.01.63,1.31.4.29.98.44,1.71.44h1.31c1.03,0,1.53.39,1.53,1.2v.76c0,.2-.03.36-.08.49-.06.13-.15.25-.28.37s-.27.19-.42.23c-.16.04-.41.06-.74.06h-3.65v.65h3.64c.41,0,.72-.03.92-.08.21-.06.43-.17.67-.35.42-.33.64-.8.64-1.4v-.78c0-.59-.2-1.05-.58-1.36-.38-.31-.93-.47-1.63-.47h-1.31c-.48,0-.68-.02-.76-.04-.11-.03-.26-.1-.44-.21-.31-.2-.46-.49-.46-.9v-.59c0-.83.51-1.23,1.54-1.23h3.67v-.65h-3.64c-.41,0-.72.03-.94.1"/>
    </g>
    <polygon class="cls-1" points="114.89 67.54 114.89 68.2 117.43 68.2 117.43 75.61 118.13 75.61 118.13 68.2 120.67 68.2 120.67 67.54 114.89 67.54"/>
    <rect class="cls-1" x="122.23" y="67.55" width=".7" height="8.06"/>
    <path class="cls-1" d="M133.88,67.46h-.03c-.21,0-.39.15-.53.44l-3.51,6.8-3.57-6.77c-.12-.25-.19-.33-.23-.36-.07-.07-.17-.1-.28-.1-.2,0-.28.09-.32.17s-.06.22-.06.44v7.54h.69v-6.6l3.26,6.2c.14.26.2.33.24.37.06.06.15.09.27.09.11,0,.21-.05.3-.14.07-.07.16-.21.27-.41l3.14-6.09v6.58h.69v-7.79c-.02-.19-.14-.31-.32-.35"/>
    <path class="cls-1" d="M150.62,74.43l-4.82-6.56c-.1-.14-.18-.24-.25-.3-.08-.07-.18-.11-.28-.11-.2,0-.35.13-.39.37v7.77h.69v-6.91l4.85,6.61c.18.25.35.37.53.37.2,0,.28-.11.31-.18.03-.06.06-.17.06-.49v-7.45h-.69v6.89h0Z"/>
    <path class="cls-1" d="M142.42,71.95l.04-.65h-5.15v-1.85c0-.42.13-.73.4-.93.28-.21.63-.32,1.04-.32h3.7v-.65h-3.68c-.64,0-1.17.18-1.56.52-.39.35-.59.81-.59,1.39v4.31c0,.55.19,1,.58,1.34.38.33.88.5,1.49.5h3.74v-.65h-3.68c-.45,0-.81-.11-1.06-.33s-.37-.52-.37-.91v-1.76h5.11-.01Z"/>
    <polygon class="cls-1" points="152.7 67.54 152.7 68.2 155.25 68.2 155.25 75.61 155.94 75.61 155.94 68.2 158.49 68.2 158.49 67.54 152.7 67.54"/>
    <g>
      <path class="cls-1" d="M164.18,74.89c-.17.05-.44.07-.8.07h-1.58c-.34,0-.61-.02-.78-.07s-.32-.13-.47-.25c-.28-.24-.41-.59-.41-1.06v-3.95c0-.49.14-.84.41-1.09.14-.13.29-.22.45-.26s.43-.06.8-.06h1.58c.34,0,.61.02.79.07.17.05.32.13.46.25.27.24.4.61.4,1.09v3.99c0,.46-.13.8-.4,1.04-.14.12-.28.21-.45.25M163.35,67.55h-1.54c-1.57,0-2.37.69-2.37,2.05v4.01c0,1.33.8,2,2.37,2h1.54c1.57,0,2.37-.68,2.37-2.01v-4c0-1.36-.8-2.05-2.37-2.05"/>
      <path class="cls-1" d="M169.11,67.65c-.23.07-.46.2-.68.38-.42.33-.64.81-.64,1.43v.65c0,.57.21,1.01.63,1.31.4.29.98.44,1.71.44h1.31c1.03,0,1.53.39,1.53,1.2v.76c0,.2-.03.36-.08.49-.06.13-.15.25-.28.37s-.27.19-.42.23c-.16.04-.41.06-.74.06h-3.65v.65h3.64c.41,0,.72-.03.92-.08.21-.06.43-.17.67-.35.42-.33.64-.8.64-1.4v-.78c0-.59-.2-1.05-.58-1.36s-.93-.47-1.63-.47h-1.31c-.48,0-.68-.02-.76-.04-.11-.03-.26-.1-.44-.21-.31-.2-.46-.49-.46-.9v-.59c0-.83.51-1.23,1.54-1.23h3.67v-.65h-3.64c-.41,0-.72.03-.94.1"/>
      <path class="cls-1" d="M181.49,67.64c-.22.06-.43.17-.62.31-.45.33-.67.81-.67,1.41v4.33c0,.34.05.63.14.85.1.23.27.44.5.64.24.19.45.31.64.36.18.05.5.07.98.07h3.56v-.65h-3.56c-.32,0-.56-.02-.71-.06-.14-.04-.29-.12-.45-.24-.29-.21-.42-.54-.42-1v-4.33c0-.36.14-.64.41-.86.15-.12.28-.19.38-.22.07-.02.24-.05.63-.05h3.74v-.65h-3.75c-.33,0-.61.03-.82.09"/>
      <path class="cls-1" d="M192.76,74.89c-.17.05-.44.07-.8.07h-1.58c-.34,0-.61-.02-.78-.07s-.32-.13-.47-.25c-.28-.24-.41-.59-.41-1.06v-3.95c0-.49.14-.84.41-1.09.14-.13.29-.22.45-.26s.43-.06.8-.06h1.58c.34,0,.61.02.79.07.17.05.32.13.46.25.27.24.4.61.4,1.09v3.99c0,.46-.13.8-.4,1.04-.14.12-.28.21-.45.25M191.94,67.55h-1.54c-1.57,0-2.37.69-2.37,2.05v4.01c0,1.33.8,2,2.37,2h1.54c1.57,0,2.37-.68,2.37-2.01v-4c0-1.36-.8-2.05-2.37-2.05"/>
      <path class="cls-1" d="M202.48,74.43l-4.82-6.56c-.1-.14-.18-.24-.25-.3-.08-.07-.18-.11-.28-.11-.2,0-.35.13-.39.37v7.77h.69v-6.91l4.85,6.61c.18.25.35.37.53.37.2,0,.28-.11.31-.18.03-.06.06-.17.06-.49v-7.45h-.69v6.89h0Z"/>
      <path class="cls-1" d="M206.89,67.64c-.22.06-.43.17-.62.31-.45.33-.68.81-.68,1.41v4.33c0,.34.05.63.14.85.1.23.27.44.5.64.24.19.45.31.64.36.18.05.5.07.98.07h3.56v-.65h-3.56c-.32,0-.56-.02-.71-.06-.14-.04-.29-.12-.45-.24-.29-.21-.42-.54-.42-1v-4.33c0-.36.14-.64.41-.86.15-.12.28-.19.38-.22.07-.02.24-.05.63-.05h3.74v-.65h-3.75c-.33,0-.61.03-.82.09"/>
      <path class="cls-1" d="M214.13,68.2h3.5c1.03,0,1.53.39,1.53,1.2v1.12c0,.36-.11.63-.34.82-.24.2-.58.29-1.02.29h-3.34c-.15,0-.26.02-.33.05v-3.49h0ZM217.82,72.29c.63,0,1.13-.16,1.49-.48s.54-.77.54-1.33v-1.05c0-.62-.2-1.09-.58-1.41-.38-.31-.94-.47-1.65-.47h-4.18v8.06h.69v-3.26l4.77,3.26h1.21l-4.89-3.32h2.61-.01Z"/>
      <path class="cls-1" d="M227.82,71.95l.04-.65h-5.15v-1.85c0-.42.13-.73.4-.93.28-.21.63-.32,1.04-.32h3.7v-.65h-3.68c-.64,0-1.17.18-1.56.52-.39.35-.59.81-.59,1.39v4.31c0,.55.19,1,.58,1.34.38.33.88.5,1.49.5h3.74v-.65h-3.68c-.45,0-.81-.11-1.06-.33s-.37-.52-.37-.91v-1.76h5.11-.01Z"/>
    </g>
    <polygon class="cls-1" points="229.23 67.54 229.23 68.2 231.78 68.2 231.78 75.61 232.47 75.61 232.47 68.2 235.02 68.2 235.02 67.54 229.23 67.54"/>
    <g>
      <path class="cls-1" d="M240.71,74.89c-.17.05-.44.07-.8.07h-1.58c-.34,0-.61-.02-.78-.07s-.32-.13-.47-.25c-.28-.24-.41-.59-.41-1.06v-3.95c0-.49.14-.84.41-1.09.14-.13.29-.22.45-.26s.43-.06.8-.06h1.58c.34,0,.61.02.79.07.17.05.32.13.46.25.27.24.4.61.4,1.09v3.99c0,.46-.13.8-.4,1.04-.14.12-.28.21-.45.25M239.88,67.55h-1.54c-1.57,0-2.37.69-2.37,2.05v4.01c0,1.33.8,2,2.37,2h1.54c1.57,0,2.37-.68,2.37-2.01v-4c0-1.36-.8-2.05-2.37-2.05"/>
      <path class="cls-1" d="M246.56,68.2h3.67v-.65h-3.65c-.41,0-.71.03-.94.1s-.45.2-.68.38c-.42.33-.63.81-.63,1.43v.65c0,.57.21,1.01.63,1.3.4.29.98.44,1.71.44h1.31c1.03,0,1.53.39,1.53,1.2v.76c0,.2-.03.36-.08.49-.06.13-.15.25-.28.37s-.27.19-.42.23c-.16.04-.41.06-.74.06h-3.65v.65h3.64c.41,0,.71-.03.92-.08.21-.05.43-.17.67-.35.42-.33.64-.8.64-1.4v-.78c0-.59-.19-1.05-.58-1.36-.38-.31-.93-.47-1.63-.47h-1.31c-.48,0-.68-.02-.76-.04-.11-.03-.26-.1-.44-.21-.31-.2-.45-.49-.45-.9v-.59c0-.83.5-1.23,1.54-1.23"/>
    </g>
  </g>
  <rect class="cls-1" x="226.7" y="42.91" width="2.19" height="11.74"/>
  <g>
    <path class="cls-1" d="M238.25,51.62l-3.44-7.57c-.21-.44-.45-.75-.72-.93s-.63-.28-1.07-.28c-.61,0-1.06.15-1.35.44-.28.29-.43.76-.43,1.39v9.98h2.18v-8.56l3.45,7.43c.38.85.98,1.29,1.78,1.29.51,0,.93-.16,1.27-.48.34-.32.51-.73.51-1.22v-10.2h-2.18v8.71h0Z"/>
    <path class="cls-1" d="M246.13,44.94h5.24v-2.03h-5.49c-.92,0-1.67.28-2.22.83-.56.55-.84,1.28-.84,2.17v5.84c0,.8.29,1.49.86,2.06s1.27.86,2.08.86h5.57v-2.03h-5.21c-.34,0-.6-.1-.81-.3-.21-.2-.31-.44-.31-.73v-5.66c0-.68.36-1,1.12-1"/>
  </g>
</svg>
